<svg version="1.0" xmlns="http://www.w3.org/2000/svg" width="512.000000pt" height="512.000000pt" viewBox="0 0 512.000000 512.000000" preserveAspectRatio="xMidYMid meet"><g transform="translate(0.000000,512.000000) scale(0.100000,-0.100000)"fill="#000000" stroke="none"><path d="M2240 3839 c-383 -39 -671 -165 -878 -384 -122 -129 -175 -233 -199-390 -24 -164 -23 -177 10 -193 l28 -14 -26 -34 c-23 -30 -25 -37 -13 -51 8-10 12 -36 10 -72 -4 -66 19 -101 67 -101 25 0 28 -3 23 -25 -6 -33 23 -65 58-65 24 0 28 -5 34 -42 4 -23 3 -44 -1 -48 -4 -4 -42 -17 -83 -30 -41 -12 -92-31 -112 -41 -71 -36 -112 -134 -72 -173 19 -20 18 -20 93 5 34 12 64 19 6716 3 -3 0 -23 -6 -44 -15 -48 0 -110 33 -141 25 -24 30 -90 9 -129 -17 -30-15 -37 14 -72 14 -17 33 -57 41 -89 8 -31 21 -67 28 -78 14 -21 13 -21 -48-21 -72 1 -157 -31 -157 -59 0 -15 12 -16 123 -9 120 7 124 6 153 -17 107 -87265 -128 574 -147 292 -19 652 -23 930 -12 617 26 734 44 833 131 54 48 75 9784 195 l6 74 165 0 c128 1 192 -4 281 -20 129 -23 190 -20 253 12 51 26 78 7178 132 0 38 3 47 18 47 29 0 84 40 95 70 7 18 21 31 40 37 59 16 87 90 73 188-9 56 -50 106 -106 129 l-40 16 0 510 c0 549 0 552 -52 607 -26 28 -106 59-191 73 -80 14 -126 -1 -154 -52 -17 -31 -18 -76 -21 -668 -3 -606 -4 -635-22 -655 -48 -52 -33 -125 43 -207 59 -62 109 -83 172 -73 19 3 51 7 70 10l35 6 0 -41 c0 -53 -33 -85 -106 -101 -46 -10 -70 -9 -177 9 -93 17 -164 22-289 22 l-166 0 -6 24 c-3 14 -23 39 -44 57 l-38 32 18 36 c25 48 21 149 -8209 -13 25 -17 42 -10 42 25 -1 96 -40 134 -74 23 -21 43 -32 47 -27 11 18-15 89 -48 132 -36 48 -148 114 -209 124 -21 4 -38 11 -38 16 0 5 4 9 8 9 5 016 16 25 35 16 34 19 35 70 35 30 0 79 -5 110 -11 70 -14 107 3 107 50 0 48-75 133 -165 186 -12 8 -16 17 -11 32 6 19 14 22 57 21 43 -1 54 3 84 32 2626 35 42 35 68 0 31 -4 35 -55 58 l-55 25 0 66 c0 236 -187 495 -472 656 -15888 -398 152 -663 177 -128 12 -373 11 -495 -1z m625 -64 c125 -19 299 -65 393-104 301 -122 516 -355 564 -610 8 -44 6 -62 -7 -98 -9 -23 -23 -43 -30 -43-7 0 -65 9 -128 20 -614 105 -1372 106 -2095 4 -180 -25 -263 -30 -246 -15 1110 191 65 284 86 l65 15 -90 -5 c-93 -5 -274 -42 -337 -68 l-37 -15 6 71 c12168 67 280 203 418 100 100 199 171 307 220 149 67 342 118 524 138 121 14504 5 624 -14z m1709 -316 c39 -11 79 -28 88 -38 17 -16 39 -141 25 -141 -4 0-45 9 -92 20 -47 11 -90 20 -95 20 -6 0 -10 -181 -10 -484 l0 -483 53 -7 c28-3 82 -6 119 -6 84 0 88 -6 88 -128 0 -127 -4 -131 -150 -147 -111 -12 -116-12 -132 7 -13 15 -18 38 -18 87 0 37 -4 71 -9 76 -6 6 -11 252 -12 612 -1473 1 606 11 618 17 20 49 19 134 -6z m-174 -94 c0 -57 -4 -95 -10 -95 -11 0-14 172 -3 183 12 13 13 7 13 -88z m-13 -497 c-1 -62 -3 -12 -3 112 0 124 2174 3 113 2 -62 2 -164 0 -225z m-1942 82 c-10 -11 -33 -25 -51 -32 -49 -18-44 -38 10 -38 50 0 106 37 106 71 0 18 10 19 209 19 228 0 441 -12 651 -36194 -22 383 -53 395 -65 11 -11 -7 -9 -183 18 -69 10 -128 13 -180 9 -42 -4-106 -8 -142 -9 -55 -2 -73 -7 -115 -35 -27 -18 -56 -31 -64 -30 -23 5 -24 26-2 33 23 7 29 35 7 35 -7 0 -30 -11 -50 -25 -20 -14 -42 -25 -48 -25 -11 0-76 29 -131 57 -25 13 -31 12 -63 -7 -40 -25 -49 -21 -49 23 0 26 -5 33 -2335 -13 2 -25 -3 -28 -13 -5 -13 -15 -15 -51 -9 -40 6 -45 4 -50 -15 -4 -15-11 -20 -23 -16 -10 3 -23 -2 -31 -11 -38 -45 -135 -57 -208 -24 -60 27 -7725 -144 -16 l-59 -36 -30 22 c-27 20 -31 20 -47 6 -24 -22 -38 -20 -56 8 -3350 -140 79 -161 44 -10 -15 8 -24 56 -28 27 -2 -30 -40 -60 -40 -16 0 -42 -8-58 -17 -26 -15 -37 -15 -115 -3 -117 18 -157 11 -237 -44 -71 -49 -85 -53-124 -35 -32 15 -56 -2 -56 -38 0 -14 -4 -21 -10 -18 -14 8 -13 72 1 81 6 432 8 56 10 45 3 83 26 83 50 0 10 -12 12 -47 8 -27 -3 -54 -7 -60 -10 -7 -2-13 3 -13 10 0 22 72 45 223 71 280 47 630 81 866 84 123 1 124 1 106 -19zm1440 -80 c41 -18 45 -22 35 -40 -14 -27 -38 -36 -53 -21 -18 18 -72 13 -92-9 -10 -11 -27 -20 -37 -20 -10 0 -36 9 -58 20 -57 29 -93 26 -124 -11 -14-17 -26 -37 -26 -45 0 -11 -8 -10 -37 6 -27 14 -57 20 -103 20 -64 0 -116 10-174 32 -26 11 -27 13 -11 24 10 7 30 11 45 8 15 -3 48 1 74 10 57 20 151 20231 1 153 -37 275 -26 275 24 0 25 -2 25 55 1z m-1473 -90 c51 -5 147 -10 213-10 98 0 128 4 164 20 53 24 93 25 127 4 17 -11 37 -15 64 -11 25 3 45 0 57-9 24 -18 49 -17 83 3 28 16 29 16 77 -24 55 -47 129 -86 193 -103 71 -19 139-58 197 -112 52 -50 66 -84 39 -94 -7 -3 -47 15 -88 40 -125 76 -317 163 -408185 -219 53 -374 63 -762 51 -462 -14 -714 -49 -981 -136 -43 -15 -81 -23 -84-20 -11 11 28 56 67 76 51 26 253 78 349 90 43 6 89 19 110 31 20 12 54 28 7636 38 13 40 13 58 -12 20 -27 51 -32 92 -13 18 8 29 9 33 1 15 -22 48 -23 87-1 92 50 86 48 116 32 16 -8 70 -18 121 -24z m302 25 c4 -13 -7 -15 -69 -15-83 0 -103 17 -27 23 26 2 57 4 68 5 12 1 24 -5 28 -13z m-1094 -62 c8 -3 -21-15 -65 -27 -44 -12 -91 -26 -105 -30 l-25 -7 25 21 c58 50 112 63 170 43zm2178 -86 c61 -36 142 -119 124 -125 -14 -4 -57 9 -174 54 -79 31 -235 74-381 105 -32 7 -65 18 -74 24 -30 22 147 6 185 -17 43 -26 80 -17 95 22 l1128 80 -29 c44 -16 105 -44 134 -62z m-988 -9 c-30 -12 -418 -12 -475 1 -27 650 9 230 9 194 1 263 -2 245 -10z m378 -70 c19 -19 14 -56 -11 -72 -73 -48-487 -81 -1027 -80 -234 0 -442 4 -463 8 -58 11 -44 33 56 85 l89 46 486 2c268 1 532 6 587 11 153 14 269 14 283 0z m372 -214 c105 -15 229 -59 213 -75-5 -5 -33 -11 -63 -15 -41 -5 -84 0 -173 20 -157 36 -241 45 -529 60 -229 12-236 13 -118 16 69 1 159 6 200 10 106 11 346 3 470 -16z m-935 -9 c-96 -33-159 -45 -305 -60 -85 -9 -222 -25 -305 -36 -86 -12 -176 -19 -211 -16 -63 5-173 47 -196 75 -12 14 -6 14 45 9 162 -19 267 -19 492 3 328 32 392 37 46038 l60 1 -40 -14z m-1087 -21 c28 -9 -2 -24 -47 -24 -70 0 -227 -29 -301 -56-35 -13 -66 -21 -68 -20 -2 2 11 20 28 40 35 40 76 54 185 66 65 6 173 4 203-6z m1607 -34 c235 -25 525 -80 525 -100 0 -5 -26 -36 -58 -70 l-58 -61 -4516 c-106 38 -330 96 -500 130 -208 41 -352 82 -342 98 7 12 320 3 478 -13zm1681 -80 c6 -46 -8 -100 -26 -100 -6 0 -10 34 -10 87 0 77 2 86 15 72 8 -817 -35 21 -59z m-2409 19 c-46 -27 -154 -54 -402 -100 -148 -27 -319 -61 -379-74 -60 -14 -113 -25 -117 -25 -5 0 -20 24 -35 53 -14 28 -37 66 -50 84 -1317 -24 36 -24 42 0 17 75 13 175 -9 208 -45 204 -45 495 -2 274 41 370 50 33731z m436 -58 c70 -23 127 -46 127 -51 0 -6 -80 -8 -207 -4 -243 8 -293 1 -410-55 -150 -72 -337 -211 -284 -211 6 0 47 27 93 60 119 86 268 159 348 171 365 133 6 215 3 83 -3 206 -1 274 4 l124 10 64 -29 c69 -31 173 -96 173 -109 0-4 -64 -10 -142 -14 -79 -4 -146 -10 -151 -13 -4 -2 -3 -11 3 -18 8 -9 0 -14-36 -19 -57 -7 -379 -6 -524 3 l-105 6 55 31 c62 35 93 64 68 64 -31 0 -216-99 -277 -148 -77 -62 -104 -65 -185 -23 -62 33 -126 79 -126 91 0 12 81 90127 121 32 22 68 34 145 48 86 15 122 28 213 76 l110 57 90 -5 c70 -3 118 -14218 -46z m1559 -43 c3 -46 7 -89 9 -97 5 -19 -28 -26 -46 -11 -11 9 -15 35-15 95 0 86 3 95 30 95 15 0 18 -13 22 -82z m-92 -10 c0 -38 -3 -49 -10 -38-16 25 -11 90 7 90 2 0 3 -24 3 -52z m-2342 -118 c-53 -50 -69 -59 -100 -60-20 0 -39 4 -43 9 -11 19 143 105 198 110 4 1 -21 -26 -55 -59z m1804 -137c40 -36 14 -53 -115 -78 -227 -43 -639 -65 -1237 -65 -478 0 -705 9 -915 36-105 13 -123 18 -147 41 -16 15 -28 38 -28 51 0 23 3 24 38 19 224 -34 329-48 454 -57 137 -10 153 -13 223 -47 89 -42 141 -42 196 0 l34 25 365 5 c4367 876 39 1030 77 55 13 82 11 102 -7z m36 -126 c2 -15 -2 -53 -8 -85 -16 -76-79 -142 -160 -166 -245 -75 -1399 -97 -1810 -35 -208 31 -349 90 -412 174-21 28 -38 61 -38 74 0 22 3 23 43 17 287 -42 1016 -58 1552 -36 283 12 60743 720 69 100 23 109 22 113 -12z"/><path d="M2372 3758 c5 -15 68 -24 68 -10 0 12 -24 22 -52 22 -11 0 -18 -5-16 -12z"/><path d="M2582 3728 c5 -15 48 -18 48 -3 0 6 -11 11 -26 13 -18 3 -25 0 -22-10z"/><path d="M2762 3728 c3 -7 22 -14 42 -16 28 -2 37 0 34 10 -3 7 -22 14 -42 16-28 2 -37 0 -34 -10z"/><path d="M2133 3724 c-27 -12 -11 -25 25 -22 20 2 36 8 35 13 -3 11 -41 17-60 9z"/><path d="M2287 3704 c-10 -11 3 -24 24 -24 10 0 19 7 19 15 0 15 -31 21 -43 9z"/><path d="M2643 3688 c2 -7 12 -13 22 -13 10 0 20 6 23 13 2 7 -6 12 -23 12-17 0 -25 -5 -22 -12z"/><path d="M1994 3676 c-16 -13 -17 -15 -3 -21 20 -8 72 12 64 25 -9 14 -38 12-61 -4z"/><path d="M2500 3675 c0 -9 9 -15 25 -15 28 0 34 15 9 24 -25 10 -34 7 -34 -9z"/><path d="M2970 3679 c0 -6 9 -13 21 -16 11 -3 18 -11 15 -19 -7 -19 12 -28 29-14 13 11 12 16 -8 36 -23 24 -57 32 -57 13z"/><path d="M1853 3673 c-19 -7 -15 -33 5 -33 25 0 46 16 38 29 -7 11 -22 13 -434z"/><path d="M2235 3650 c-9 -15 3 -30 24 -30 25 0 33 11 20 27 -13 15 -35 17 -443z"/><path d="M3156 3651 c-3 -5 6 -12 22 -16 l27 -8 -24 -6 c-30 -8 -39 -29 -17-37 10 -4 24 2 36 16 25 29 25 37 1 50 -24 12 -38 13 -45 1z"/><path d="M2380 3630 c0 -15 5 -20 18 -18 9 2 17 10 17 18 0 8 -8 16 -17 18-13 2 -18 -3 -18 -18z"/><path d="M2540 3632 c-16 -13 -21 -24 -16 -37 6 -17 9 -17 34 8 33 34 18 59-18 29z"/><path d="M2890 3644 c0 -10 33 -33 48 -34 18 0 15 27 -4 34 -20 8 -44 8 -44 0z"/><path d="M2709 3636 c-2 -3 -16 -6 -31 -8 -36 -5 -42 -12 -23 -28 12 -10 21-10 45 0 16 7 30 19 30 26 0 13 -12 19 -21 10z"/><path d="M2070 3595 c0 -21 39 -40 54 -25 8 8 6 15 -8 26 -25 18 -46 18 -46-1z"/><path d="M1682 3585 c-35 -15 -43 -35 -13 -35 23 0 68 35 55 43 -5 3 -24 -1-42 -8z"/><path d="M3260 3590 c0 -17 41 -33 53 -21 9 9 8 14 -3 21 -20 13 -50 13 -50 0z"/><path d="M1823 3575 c-3 -9 -3 -19 1 -22 8 -9 56 14 56 27 0 16 -50 12 -57 -5z"/><path d="M2300 3575 c0 -16 39 -36 53 -28 11 7 -23 43 -40 43 -7 0 -13 -7 -13-15z"/><path d="M1940 3565 c-7 -9 -10 -18 -7 -21 11 -11 57 6 57 21 0 20 -34 19 -500z"/><path d="M2861 3557 c-6 -6 -11 -17 -11 -25 0 -19 44 -11 48 9 4 20 -22 31-37 16z"/><path d="M3120 3523 c1 -22 23 -53 39 -53 15 0 14 43 -1 58 -18 18 -38 15 -38-5z"/><path d="M3240 3507 c0 -15 59 -52 68 -42 8 7 -43 55 -59 55 -5 0 -9 -6 -9-13z"/><path d="M1563 3503 c-7 -2 -13 -12 -13 -20 0 -10 6 -13 16 -9 9 3 22 6 30 68 0 14 7 14 15 0 15 -22 19 -47 8z"/><path d="M1728 3499 c-18 -10 -25 -39 -10 -39 13 1 42 27 42 39 0 13 -9 14-32 0z"/><path d="M3415 3501 c-7 -13 45 -61 67 -61 29 0 21 29 -14 50 -37 22 -44 24-53 11z"/><path d="M2573 3474 c-3 -8 -1 -20 6 -27 14 -14 47 15 37 32 -10 16 -36 13-43 -5z"/><path d="M1852 3468 c-16 -16 -15 -38 2 -38 19 0 48 29 41 41 -8 13 -29 11-43 -3z"/><path d="M2783 3435 c-3 -9 -3 -18 0 -22 10 -10 37 6 37 22 0 20 -29 20 -37 0z"/><path d="M3380 3411 c0 -16 30 -33 46 -27 13 5 14 9 4 21 -13 16 -50 21 -50 6z"/><path d="M3520 3412 c0 -10 33 -42 43 -42 15 0 6 30 -12 40 -24 12 -31 13 -312z"/><path d="M2270 3389 c0 -14 5 -19 17 -17 26 5 29 38 4 38 -15 0 -21 -6 -21-21z"/><path d="M1580 3385 c-19 -23 -8 -37 18 -20 12 9 22 20 22 26 0 14 -26 11 -40-6z"/><path d="M1483 3375 c-3 -9 -3 -18 0 -21 9 -9 48 16 42 27 -9 14 -35 11 -42-6z"/><path d="M1750 3308 c-19 -20 -28 -68 -13 -68 9 0 73 71 73 81 0 17 -40 9 -60-13z"/><path d="M2640 3305 c-20 -22 -21 -25 -6 -31 19 -7 56 21 56 43 0 21 -24 15-50 -12z"/><path d="M3185 3278 c8 -59 11 -66 24 -52 15 15 1 104 -16 104 -12 0 -14 -10-8 -52z"/><path d="M3433 3304 c-8 -21 13 -42 28 -27 13 13 5 43 -11 43 -6 0 -13 -7 -17-16z"/><path d="M3590 3308 c1 -18 25 -48 39 -48 17 0 13 25 -7 43 -22 20 -32 21 -325z"/><path d="M2465 3290 c-14 -16 -16 -23 -7 -32 9 -9 16 -7 32 7 11 10 20 24 2032 0 19 -24 16 -45 -7z"/><path d="M1432 3278 c-16 -16 -15 -38 1 -38 22 0 40 18 34 34 -8 19 -19 20-35 4z"/><path d="M3530 3252 c0 -5 16 -36 35 -67 40 -66 61 -55 26 14 -20 37 -61 73-61 53z"/><path d="M2285 3200 c-12 -19 7 -31 36 -25 17 4 36 2 44 -5 10 -8 15 -8 21 14 7 -1 18 -11 26 -22 15 -81 18 -90 3z"/><path d="M1436 3174 c-26 -27 -47 -81 -38 -98 3 -5 13 6 23 25 9 19 29 45 4358 14 14 26 28 26 33 0 17 -28 7 -54 -18z"/><path d="M2725 3121 c-15 -6 -11 -9 20 -14 90 -15 171 -3 119 17 -22 8 -115 6-139 -3z"/><path d="M4520 3391 c0 -23 47 -38 64 -21 8 8 6 15 -8 26 -28 20 -56 18 -56-5z"/></g></svg>