<?xml version="1.0" standalone="no"?>
<!DOCTYPE svg PUBLIC "-//W3C//DTD SVG 20010904//EN"
 "http://www.w3.org/TR/2001/REC-SVG-20010904/DTD/svg10.dtd">
 <defs>
    <radialGradient id="pulseGradient">
      <stop offset="10%" stop-color="#58F0D4" />
      <stop offset="95%" stop-color="#58F0D400" />
    </radialGradient>
    <linearGradient id="fadeGradient" gradientTransform="rotate(90)">
      <stop offset="0%" stop-color="#888888" />
      <stop offset="50%" stop-color="white" />
      <stop offset="100%" stop-color="#888888" />
    </linearGradient>
    <mask id="vignette">
      <rect x="0" y="0" width="1283" height="610" fill="url('#fadeGradient')" />
    </mask>
    <mask id="v-clip">
      <path
        vector-effect="non-scaling-stroke"
        d="M184.5 114.5H2C154.667 262.5 458 556.385 494 591C530 625.615 612.5 613 612.5 541.5V114.5H485.5V406L184.5 114.5Z"
        stroke="white"
        class="pulse"
      />
    </mask>
    <mask id="o-clip">
      <path
        vector-effect="non-scaling-stroke"
        d="M653.5 114.5H1075L774 410V1C774 1 954.5 1 1075 1C1195.5 1 1282 114.5 1282 207C1282 299.5 1282 495.5 1282 495.5H868.5L1162 207V609.5C1162 609.5 998 609.5 868.5 609.5C739 609.5 653.5 487 653.5 410C653.5 333 653.5 114.5 653.5 114.5Z"
        stroke="white"
        class="pulse"
      />
    </mask>
  </defs>

 <style>
    .squiggle {
  stroke-dasharray: 1;
  stroke-dashoffset: 10;
  animation: draw 45s linear infinite;
 
}
 @keyframes draw {
  to {
    stroke-dashoffset: 0;
  }
}
</style>


<svg xmlns="http://www.w3.org/2000/svg" width="48" height="48" viewBox="0 0 24 24" fill="none" stroke="#c8c6c6" stroke-width="0.06" stroke-linecap="round" stroke-linejoin="round" class="lucide lucide-pizza">

<path   stroke-width="0.04"   stroke="#c8c6c6" class="squiggle" stroke-dasharray="1,1" d="M15 11h.01"/><path stroke-width="0.04"   stroke="#c8c6c6" class="squiggle" stroke-dasharray="1,1" d="M11 15h.01"/><path stroke-width="0.04"   stroke="#c8c6c6" class="squiggle" stroke-dasharray="1,1" d="M16 16h.01"/><path stroke-width="0.04"   stroke="#c8c6c6" class="squiggle" stroke-dasharray="1,1" d="m2 16 20 6-6-20A20 20 0 0 0 2 16"/><path stroke-width="0.04"   stroke="#c8c6c6" class="squiggle" stroke-dasharray="1,1" d="M5.71 17.11a17.04 17.04 0 0 1 11.4-11.4"/>

<path class="squiggle" stroke-width="0.04"   stroke="#c8c6c6" class="squiggle" stroke-dasharray="1,1" d="M15 11h.01"/><path stroke-width="0.04"   stroke="#c8c6c6" class="squiggle" stroke-dasharray="1,1" d="M11 15h.01"/><path stroke-width="0.04"   stroke="#c8c6c6" class="squiggle" stroke-dasharray="1,1" d="M16 16h.01"/><path stroke-width="0.04"   stroke="#c8c6c6" class="squiggle" stroke-dasharray="1,1" d="m2 16 20 6-6-20A20 20 0 0 0 2 16"/><path stroke-width="0.04"   stroke="#c8c6c6" class="squiggle" stroke-dasharray="1,1" d="M5.71 17.11a17.04 17.04 0 0 1 11.4-11.4"/>



</svg>



